<svg xmlns="http://www.w3.org/2000/svg" viewBox="0 0 160 40" fill="none">
  <rect width="160" height="40" rx="8" fill="#5b8c5a"/>
  <g fill="white">
    <!-- S -->
    <rect x="12" y="8" width="18" height="6" rx="2"/>
    <rect x="12" y="17" width="18" height="6" rx="2"/>
    <rect x="12" y="26" width="18" height="6" rx="2"/>
    <rect x="24" y="8" width="6" height="7" rx="2"/>
    <rect x="24" y="23" width="6" height="7" rx="2"/>
    <rect x="12" y="13" width="6" height="7" rx="2"/>
    <rect x="12" y="22" width="6" height="6" rx="2"/>
    <!-- I -->
    <rect x="40" y="8" width="8" height="24" rx="2"/>
    <!-- R -->
    <rect x="56" y="8" width="8" height="24" rx="2"/>
    <rect x="56" y="8" width="22" height="6" rx="2"/>
    <rect x="72" y="8" width="6" height="11" rx="2"/>
    <rect x="56" y="17" width="22" height="6" rx="2"/>
    <polygon points="66,17 72,17 82,32 76,32"/>
    <!-- I -->
    <rect x="92" y="8" width="8" height="24" rx="2"/>
    <!-- B -->
    <rect x="108" y="8" width="8" height="24" rx="2"/>
    <rect x="108" y="8" width="22" height="6" rx="2"/>
    <rect x="124" y="8" width="6" height="9" rx="2"/>
    <rect x="108" y="15" width="22" height="6" rx="2"/>
    <rect x="124" y="15" width="10" height="9" rx="2"/>
    <rect x="108" y="26" width="22" height="6" rx="2"/>
  </g>
</svg>